<svg xmlns="http://www.w3.org/2000/svg" xml:space="preserve" width="352.87814" height="352.9068" viewBox="0 0 352.87814 352.90679"><g style="stroke-width:.116424"><path d="M476.845 822.277c0-8.51-6.895-15.405-15.407-15.405-8.51 0-15.406 6.895-15.406 15.405 0 8.515 6.897 15.41 15.406 15.41 8.512 0 15.407-6.895 15.407-15.41" style="fill:#07479a;fill-opacity:1;fill-rule:nonzero;stroke:none;stroke-width:.0582118" transform="matrix(11.45244 0 0 -11.45244 -5108.153 9593.55)"/><path d="M452.333 813.172a12.84 12.84 0 0 1 9.107-3.78c3.55 0 6.768 1.445 9.104 3.78a12.84 12.84 0 0 1 3.777 9.105c0 3.55-1.445 6.77-3.777 9.105a12.84 12.84 0 0 1-9.104 3.775c-3.554 0-6.773-1.44-9.107-3.775a12.84 12.84 0 0 1-3.777-9.105c0-3.555 1.443-6.77 3.777-9.105m-4.67 9.105c.002 7.595 6.178 13.775 13.777 13.775 7.594 0 13.772-6.18 13.772-13.775 0-7.6-6.178-13.775-13.772-13.775-7.6 0-13.775 6.175-13.777 13.775" style="fill:#fff;fill-opacity:1;fill-rule:nonzero;stroke:none;stroke-width:.0582118" transform="matrix(11.45244 0 0 -11.45244 -5108.153 9593.55)"/><path d="M464.09 830.402a2.651 2.651 0 1 0-5.304 0 2.656 2.656 0 0 0 2.652 2.655 2.66 2.66 0 0 0 2.653-2.655M464.45 825.812c-1.222 0-2.293-.41-2.928-1.16h-.166c-.639.75-1.71 1.16-2.93 1.16h-6.379v-7.07h6.38c1.243 0 2.331-.465 2.962-1.31l.096-.005c.633.85 1.72 1.315 2.965 1.315h6.377v7.07M456.724 814.597h4.117v.503h-4.117z" style="fill:#fff;fill-opacity:1;fill-rule:nonzero;stroke:none;stroke-width:.0582118" transform="matrix(11.45244 0 0 -11.45244 -5108.153 9593.55)"/><path d="M460.04 813.322h-1.598v2.47h.483v-2h.637v2h.478" style="fill:#fff;fill-opacity:1;fill-rule:nonzero;stroke:none;stroke-width:.0582118" transform="matrix(11.45244 0 0 -11.45244 -5108.153 9593.55)"/><path d="M460.646 812.212h-3.319v3.58h.483v-3.11h2.835M464.933 815.322v-2.64h.728v2.64h-.7090000000000001zm1.209-3.11h-1.688v3.58h1.688zM462.292 815.322h1.553v.466h-1.553zM462.15 814.357h1.843v.468h-1.844z" style="fill:#fff;fill-opacity:1;fill-rule:nonzero;stroke:none;stroke-width:.0582118" transform="matrix(11.45244 0 0 -11.45244 -5108.153 9593.55)"/><path d="M463.85 812.787c-.144.13-.562.72-.609.93l.04.745c.199-.56.71-1.21.86-1.365M462.185 812.622l-.297.31c.168.165.763.865.953 1.485l.066-.755c-.086-.255-.422-.735-.722-1.04" style="fill:#fff;fill-opacity:1;fill-rule:nonzero;stroke:none;stroke-width:.0582118" transform="matrix(11.45244 0 0 -11.45244 -5108.153 9593.55)"/><path d="M462.83 812.212h.481v3.306h-.482z" style="fill:#fff;fill-opacity:1;fill-rule:nonzero;stroke:none;stroke-width:.0582118" transform="matrix(11.45244 0 0 -11.45244 -5108.153 9593.55)"/></g></svg>